<svg xmlns="http://www.w3.org/2000/svg" width="374" height="374" fill="none" viewBox="0 0 374 374"><path stroke="url(#paint0_linear_102_93)" stroke-linecap="round" stroke-linejoin="round" stroke-width="31.167" d="M77.9167 124.667H296.083M77.9167 124.667C69.6508 124.667 61.7234 121.383 55.8785 115.538C50.0336 109.693 46.75 101.766 46.75 93.5C46.75 85.2341 50.0336 77.3067 55.8785 71.4618C61.7234 65.6169 69.6508 62.3333 77.9167 62.3333H296.083C304.349 62.3333 312.277 65.6169 318.121 71.4618C323.966 77.3067 327.25 85.2341 327.25 93.5C327.25 101.766 323.966 109.693 318.121 115.538C312.277 121.383 304.349 124.667 296.083 124.667M77.9167 124.667V280.5C77.9167 288.766 81.2003 296.693 87.0452 302.538C92.8901 308.383 100.817 311.667 109.083 311.667H264.917C273.183 311.667 281.11 308.383 286.955 302.538C292.8 296.693 296.083 288.766 296.083 280.5V124.667M155.833 187H218.167"/><defs><linearGradient id="paint0_linear_102_93" x1="187" x2="187" y1="62.333" y2="311.667" gradientUnits="userSpaceOnUse"><stop stop-color="#0BB1F6"/><stop offset="1" stop-color="#5045BC"/></linearGradient></defs></svg>